# xmcd CD database file
#
# Track frame offsets:
#	150
#	23503
#	43600
#	64555
#	82523
#	102865
#	118933
#	140120
#	162483
#	183255
#
# Disc length: 2765 seconds
#
# Revision: 0
# Processed by: cddbd v1.5.1PL2 Copyright (c) Steve Scherf et al.
# Submitted via: CDex 1.51
#
DISCID=790acb0a
DTITLE=RA MU - Thanks Giving
DYEAR=1988
DGENRE=JPop
TTITLE0=Rainy Night Lady
TTITLE1=Carnaval
TTITLE2=夏と秋のGood-Luck
TTITLE3=Two Years After
TTITLE4=少年は天使を殺す
TTITLE5=One And Only
TTITLE6=Tokyo野蛮人
TTITLE7=片思い同盟
TTITLE8=Late Night Heartache
TTITLE9=Love Talk
EXTD=YEAR: 1988
EXTT0=
EXTT1=
EXTT2=
EXTT3=
EXTT4=
EXTT5=
EXTT6=
EXTT7=
EXTT8=
EXTT9=
PLAYORDER=
